<svg xmlns="http://www.w3.org/2000/svg" viewBox="0 0 64 64">
  <defs>
    <linearGradient id="g" x1="10" x2="54" y1="6" y2="58" gradientUnits="userSpaceOnUse">
      <stop stop-color="#22c55e"/>
      <stop offset=".48" stop-color="#facc15"/>
      <stop offset="1" stop-color="#2563eb"/>
    </linearGradient>
  </defs>
  <rect width="64" height="64" rx="16" fill="#111827"/>
  <path d="M22 12h20v8c0 7.5-4.2 13.3-10 15.2C26.2 33.3 22 27.5 22 20v-8Z" fill="url(#g)"/>
  <path d="M18 15h7v6c0 4-2.6 7-6.5 7H16v-5h2.5c1.1 0 1.5-.7 1.5-2v-1h-2v-5Zm21 0h7v5h-2v1c0 1.3.4 2 1.5 2H48v5h-2.5c-3.9 0-6.5-3-6.5-7v-6Z" fill="#f8fafc"/>
  <path d="M29 35h6v9h8v6H21v-6h8v-9Z" fill="#f8fafc"/>
  <path d="M18 53h28" stroke="#facc15" stroke-width="4" stroke-linecap="round"/>
</svg>
